<?xml version="1.0" standalone="no"?><!DOCTYPE svg PUBLIC "-//W3C//DTD SVG 1.1//EN" "http://www.w3.org/Graphics/SVG/1.1/DTD/svg11.dtd"><svg t="1502160669864" class="icon" style="" viewBox="0 0 1024 1024" version="1.1" xmlns="http://www.w3.org/2000/svg" p-id="3144" xmlns:xlink="http://www.w3.org/1999/xlink" width="32" height="32"><defs><style type="text/css"></style></defs><path d="M236.189746 369.287235a26.927082 26.927082 0 0 1-33.851189 13.848213 26.157737 26.157737 0 0 1-13.848214-33.851188 329.279746 329.279746 0 0 1 27.696428-50.776784 295.428557 295.428557 0 0 1 38.46726-45.391366 301.583318 301.583318 0 0 1 94.629459-64.624997 26.157737 26.157737 0 0 1 20.002975 47.699402 171.56398 171.56398 0 0 0-42.313986 23.080356 236.188976 236.188976 0 0 0-37.697914 30.004463 313.123496 313.123496 0 0 0-30.773808 37.697915 235.419631 235.419631 0 0 0-22.311011 42.313986z m590.087768 396.212778l184.642848 184.642848a43.083331 43.083331 0 0 1-60.008925 61.547616l-185.412194-185.412193a466.223191 466.223191 0 0 1-476.994024 72.318448A473.147298 473.147298 0 0 1 35.390649 646.251507a461.60712 461.60712 0 0 1-34.620534-176.180051 461.60712 461.60712 0 0 1 136.1741-333.126472A465.453846 465.453846 0 0 1 467.762651 0.001539 473.916643 473.916643 0 0 1 646.250737 35.391418a461.60712 461.60712 0 0 1 153.86904 101.553566 469.300572 469.300572 0 0 1 98.476186 151.561005 476.994024 476.994024 0 0 1 34.620534 176.180051 465.453846 465.453846 0 0 1-36.159224 179.257431 471.608608 471.608608 0 0 1-72.318449 119.248506zM613.168894 113.864628a384.6726 384.6726 0 0 0-415.446408 83.089282 397.751468 397.751468 0 0 0-83.089282 123.864577 391.596707 391.596707 0 0 0-28.465772 146.175588 378.517838 378.517838 0 0 0 27.696427 143.867553 389.288671 389.288671 0 0 0 83.089282 123.864577 376.209803 376.209803 0 0 0 124.633922 84.627972 390.058016 390.058016 0 0 0 146.175588 27.696427 377.748493 377.748493 0 0 0 145.406243-27.696427 366.97766 366.97766 0 0 0 123.095232-82.319937 384.6726 384.6726 0 0 0 112.324399-269.27082 394.674088 394.674088 0 0 0-27.696427-143.867552 384.6726 384.6726 0 0 0-76.93452-121.556542 384.6726 384.6726 0 0 0-130.788684-88.474698z m103.092257 353.129447a25.388392 25.388392 0 0 1 26.157736-26.157737 26.157737 26.157737 0 0 1 26.157737 26.157737 307.73808 307.73808 0 0 1-23.080356 116.171125 298.505938 298.505938 0 0 1-162.331837 159.254457 292.351176 292.351176 0 0 1-115.40178 23.849701 26.157737 26.157737 0 0 1-26.157737-23.849701 25.388392 25.388392 0 0 1 26.157737-26.157737 243.882428 243.882428 0 0 0 94.62946-17.69494 250.806535 250.806535 0 0 0 80.781246-53.854164 245.421119 245.421119 0 0 0 53.854164-76.93452 245.421119 245.421119 0 0 0 19.23363-100.784221z" p-id="3145" fill="#ffffff"></path></svg>