<?xml version="1.0" standalone="no"?><!DOCTYPE svg PUBLIC "-//W3C//DTD SVG 1.1//EN" "http://www.w3.org/Graphics/SVG/1.1/DTD/svg11.dtd"><svg t="1510641865261" class="icon" style="" viewBox="0 0 1024 1024" version="1.1" xmlns="http://www.w3.org/2000/svg" p-id="6154" xmlns:xlink="http://www.w3.org/1999/xlink" width="48" height="48"><defs><style type="text/css"></style></defs><path d="M234.553 640.080c-9.562-9.577-25.061-9.577-34.625 0-9.574 9.574-9.574 25.086 0 34.659l293.888 294.138c4.785 4.788 11.046 7.183 17.317 7.183s12.53-2.395 17.318-7.183c9.562-9.574 9.562-25.086 0-34.659l-293.899-294.138zM951.981 485.826h-822.572l399.042-399.364c9.562-9.575 9.562-25.086 0-34.66-9.575-9.575-25.061-9.575-34.638 0l-440.836 441.206c-7.012 6.991-9.119 17.523-5.313 26.713 3.782 9.145 12.722 15.129 22.62 15.129h881.695c13.523 0 24.487-10.963 24.487-24.511s-10.962-24.513-24.487-24.513z" p-id="6155" fill="#ffffff"></path></svg>