<?xml version="1.0" standalone="no"?><!DOCTYPE svg PUBLIC "-//W3C//DTD SVG 1.1//EN" "http://www.w3.org/Graphics/SVG/1.1/DTD/svg11.dtd"><svg t="1510641303841" class="icon" style="" viewBox="0 0 1024 1024" version="1.1" xmlns="http://www.w3.org/2000/svg" p-id="6012" xmlns:xlink="http://www.w3.org/1999/xlink" width="64" height="64"><defs><style type="text/css"></style></defs><path d="M965.812251 980.146213c-20.807908 0-39.813774-11.366885-52.141544-31.190373-50.846038-81.691557-84.444251-173.47189-102.737896-280.589536-11.919471-69.824275-15.916505-141.093459-11.866259-211.816197 8.654101-151.182234 46.27493-278.666744 115.013477-389.708769 16.164145-26.146497 38.556131-30.05348 50.462299-30.05348 3.00238 0 6.117324 0.240477 9.350972 0.73678 23.874757 3.666506 41.782615 20.013823 47.913243 43.711548 0.74599 2.929726 1.170662 5.780657 1.450025 8.054443l0.255827 2.1295 0.127913 3.298116c-0.127913 11.576663-3.241834 22.096251-9.533121 32.199353-51.695383 82.71691-82.653465 177.248913-94.652753 289.010323-12.386098 115.187439-2.281973 226.821959 30.021757 331.779406 15.563464 50.564629 36.899398 97.655134 63.407122 139.941216 9.598612 15.326057 12.872169 32.410154 9.205663 48.116881-3.418866 14.699794-12.70537 27.348881-26.13831 35.658128C986.723513 977.119273 976.292953 980.146213 965.812251 980.146213z" p-id="6013" fill="#b3b3b3"></path><path d="M89.908194 980.162586c-10.510378 0-20.934798-2.929726-30.141484-8.454556-13.617136-8.18338-23.128767-21.040199-26.771737-36.204573-3.681856-15.352663-0.936325-31.428803 7.725962-45.263903 51.750641-82.69849 82.773192-177.249937 94.828762-289.058418 12.649088-117.28624 2.001587-230.712569-31.637558-337.157903-15.284101-48.338938-36.2189-94.005001-62.222133-135.698588-11.512195-18.494213-13.265118-40.414455-4.707209-58.683541 8.15882-17.389042 24.866341-29.41289 44.688805-32.151257 2.946099-0.400113 5.756097-0.592494 8.486278-0.592494 20.463054 0 38.260395 10.391674 50.109258 29.237905 30.302143 48.227398 55.160297 102.010325 73.909313 159.876244 29.229718 90.273003 42.959418 185.222515 43.191708 298.825876-1.264806 135.186935-32.151257 265.553075-89.329515 377.381-8.974395 17.563004-18.989493 34.217313-28.468378 49.603745C128.626008 969.561134 110.06835 980.162586 89.908194 980.162586z" p-id="6014" fill="#b3b3b3"></path></svg>