<?xml version="1.0" standalone="no"?><!DOCTYPE svg PUBLIC "-//W3C//DTD SVG 1.1//EN" "http://www.w3.org/Graphics/SVG/1.1/DTD/svg11.dtd"><svg t="1510641169950" class="icon" style="" viewBox="0 0 1024 1024" version="1.1" xmlns="http://www.w3.org/2000/svg" p-id="1945" xmlns:xlink="http://www.w3.org/1999/xlink" width="64" height="64"><defs><style type="text/css"></style></defs><path d="M483.725026 778.467911c-59.572794-24.373107-121.537054-53.620221-128.896672-85.774549-3.656273-15.935947 6.093788-36.981263 28.967752-62.527079 83.945901-93.507674 212.701356-244.434082 299.320133-362.081548 50.667983-68.760037 33.373085-180.688245 32.621978-185.42206-2.061962-12.749372-14.528901-21.561062-26.856671-19.404956-12.749372 2.061962-21.467941 14.06125-19.451004 26.856671 4.359284 26.810622 8.43716 106.070804-24.045649 150.176325-85.634356 116.241444-213.218126 265.806855-296.461015 358.51942-34.169217 38.059827-47.198975 72.229045-39.793309 104.335276 11.483542 50.058093 68.526723 82.493829 156.831908 118.631888 80.431867 32.903388 76.259848 51.183729 63.792909 105.460913-2.90619 12.608156 4.968152 25.216311 17.623379 28.075429 1.733481 0.421602 3.515057 0.608867 5.202489 0.608868 10.733459 0 20.389376-7.358595 22.826891-18.186198 18.042935-78.462003 9.277294-117.927853-91.683119-159.2684z" fill="#b3b3b3" p-id="1946"></path><path d="M619.933221 726.58117c-12.561084-1.921769-24.74866 6.749728-26.76355 19.546172-2.01489 12.749372 6.749728 24.746614 19.545148 26.76355 10.921747 1.733481 36.278251 9.327436 44.809555 21.982664 4.499477 6.749728 11.905144 10.404977 19.451005 10.404977 4.499477 0 9.04705-1.26583 13.030781-3.937682 10.733459-7.217379 13.640672-21.748327 6.42227-32.528858-22.029736-32.856315-70.918189-41.340547-76.495209-42.230823z" fill="#b3b3b3" p-id="1947"></path></svg>