<?xml version="1.0" standalone="no"?><!DOCTYPE svg PUBLIC "-//W3C//DTD SVG 1.1//EN" "http://www.w3.org/Graphics/SVG/1.1/DTD/svg11.dtd"><svg t="1510639063663" class="icon" style="" viewBox="0 0 1024 1024" version="1.1" xmlns="http://www.w3.org/2000/svg" p-id="5601" xmlns:xlink="http://www.w3.org/1999/xlink" width="48" height="48"><defs><style type="text/css"></style></defs><path d="M844.52352 416.73728c-88.53504-147.43552-197.86752-238.09024-331.2128-238.09024-131.98336 0-246.29248 91.50464-331.2128 238.09024C97.15712 563.32288 29.15328 680.67328 29.15328 680.67328-34.78528 830.67904 46.31552 953.42592 209.408 953.42592l607.80544 0c163.06176 0 244.18304-122.74688 180.25472-272.76288C997.46816 680.67328 933.05856 564.1728 844.52352 416.73728L844.52352 416.73728zM513.30048 684.22656c-114.87232 0-207.99488-93.10208-207.99488-207.98464 0-114.88256 93.12256-207.98464 207.99488-207.98464 114.8928 0 208.00512 93.10208 208.00512 207.98464C721.3056 591.13472 628.19328 684.22656 513.30048 684.22656L513.30048 684.22656zM52.11136 407.68512c38.20544 23.7056 83.61984-8.4992 91.5968-29.39904 52.35712-136.99072 181.1456-236.94336 336.67072-245.59616l0 0.08192c21.248-1.66912 42.61888-1.66912 63.86688-0.02048 155.21792 8.93952 283.77088 108.73856 336.04608 245.54496 7.97696 20.89984 53.39136 53.10464 91.5968 29.39904 45.17888-28.06784 79.72864-129.96608 21.0944-213.49376C952.61696 136.66304 793.3952 72.26368 548.47488 71.4752L548.47488 71.41376c-23.9616-1.11616-47.95392-1.11616-71.92576 0l0 0.0512C231.00416 72.06912 71.45472 136.6016 31.00672 194.21184-27.62752 277.71904 6.93248 379.63776 52.11136 407.68512L52.11136 407.68512zM52.11136 407.68512" p-id="5602" fill="#ffffff"></path></svg>