<?xml version="1.0" standalone="no"?><!DOCTYPE svg PUBLIC "-//W3C//DTD SVG 1.1//EN" "http://www.w3.org/Graphics/SVG/1.1/DTD/svg11.dtd"><svg t="1501389584042" class="icon" style="" viewBox="0 0 1024 1024" version="1.1" xmlns="http://www.w3.org/2000/svg" p-id="6038" xmlns:xlink="http://www.w3.org/1999/xlink" width="16" height="16"><defs><style type="text/css"></style></defs><path d="M662.784 858.496C802.0992 801.4848 896 668.0064 896 516.7872 896 312.32 725.376 146.304 514.4576 146.304c-210.5088 0-381.568 165.9904-381.568 370.432 0 45.6192 8.576 90.4192 24.8832 131.7888a20.5312 20.5312 0 0 1-11.5712 26.2144 21.0432 21.0432 0 0 1-26.5984-11.4176c-0.8448-2.0992-1.7152-4.6336-2.56-6.7584h-4.7104C52.3008 656.5888 3.84 609.28 3.84 550.9888c0.4096-53.6576 41.5744-97.9968 94.72-104.7552 34.304-193.4592 207.5136-340.4544 415.872-340.4544 208.3328 0 381.5424 146.9952 415.8464 340.4544 53.1456 6.7584 94.3104 51.0976 94.3104 104.7552 0 58.2912-48.4608 105.6-108.4672 105.6h-4.7104c-39.8848 106.88-124.3392 194.7392-234.0864 239.0784-0.8448 27.4432-24.4224 49.8432-52.736 49.8432-29.1328 0-53.1456-23.2192-53.1456-51.5328 0-28.288 23.5776-51.5328 53.1456-51.5328 15.0272 0 28.7232 6.3488 38.144 16.0512z" p-id="6039" fill="#ffffff"></path><path d="M514.4576 187.7248c-186.496 0-338.2528 147.4048-338.2528 329.0368 0 181.6576 151.3216 329.0624 338.2528 329.0624 186.4704 0 338.2528-147.4048 338.2528-329.0624 0-181.632-151.3472-329.0368-338.2528-329.0368z m210.4832 396.2112c-29.568 87.8592-114.0224 148.2752-210.0736 148.2752-96.4608 0-180.9152-60.416-210.048-148.2752-6.016-18.176 15.0016-33.792 30.848-22.8096 1.7152 1.28 5.5808 3.3792 11.1616 6.7584 9.856 5.504 21.8624 10.9824 35.1488 16.0512 39.0144 14.7968 83.1744 23.2448 132.8896 23.2448 49.3056 0 93.9008-8.8832 132.9152-23.2448 13.2864-5.0688 25.2928-10.5472 35.1488-16.0512 5.9904-2.9696 9.4208-5.504 11.136-6.7584 15.872-10.9824 36.864 4.224 30.8736 22.8096z" p-id="6040" fill="#ffffff"></path></svg>