<?xml version="1.0" standalone="no"?><!DOCTYPE svg PUBLIC "-//W3C//DTD SVG 1.1//EN" "http://www.w3.org/Graphics/SVG/1.1/DTD/svg11.dtd"><svg t="1510641282244" class="icon" style="" viewBox="0 0 1024 1024" version="1.1" xmlns="http://www.w3.org/2000/svg" p-id="5372" xmlns:xlink="http://www.w3.org/1999/xlink" width="64" height="64"><defs><style type="text/css"></style></defs><path d="M210.465432 508.759189" p-id="5373" fill="#b3b3b3"></path><path d="M272.54635 211.932854c23.040762 46.75486 44.298925 94.67322 55.525618 146.124032 3.553942 15.182794 5.91164 30.974455 5.325285 46.743604 0 15.791661-1.967818 38.289048-6.097882 53.494355-4.140297 15.780405-10.629081 30.974455-9.455349 47.918359l0 8.194636c1.183965 13.43294 4.14132 25.714661 14.770402 35.071773 18.899442 16.943904 51.395554 11.096732 64.394612-11.694343 7.67275-13.45443 9.444093-28.637224 8.270361-43.842531-1.184989-21.041222-5.325285-42.071188-10.640338-63.122643-15.356756-63.122643-41.756009-130.049938-73.65451-186.748265-16.540721-29.225625-34.853809-56.689117-56.123228-81.8164-4.140297-4.684696-8.260128-5.847172-12.400425-2.934842-4.140297 2.934842-5.325285 7.607258-1.771343 12.856819C258.363326 184.458105 266.047332 197.902302 272.54635 211.932854L272.54635 211.932854z" p-id="5374" fill="#b3b3b3"></path><path d="M459.276195 243.713674c17.397229 35.302017 33.447786 71.482031 41.923832 110.328781 2.683109 11.463076 4.463662 23.38664 4.02057 35.292807 0 11.923564-1.485841 28.909423-4.603855 40.389896-3.1262 11.914354-8.024767 23.38664-7.139607 36.180014l0 6.186909c0.89437 10.141988 3.127224 19.415189 11.151991 26.480094 14.270005 12.793374 38.805818 8.377808 48.620347-8.830109 5.792936-10.158361 7.131421-21.62246 6.244214-33.102932-0.89437-15.886829-4.02057-31.765471-8.032954-47.659463-11.595083-47.659463-31.527041-98.19237-55.611575-141.002384-12.489452-22.065552-26.316366-42.801828-42.37511-61.773925-3.1262-3.536546-6.237051-4.414543-9.363252-2.215458-3.1262 2.215458-4.02057 5.743818-1.337461 9.708106C448.567295 222.969211 454.368418 233.120408 459.276195 243.713674L459.276195 243.713674z" p-id="5375" fill="#b3b3b3"></path><path d="M613.889575 329.298911c11.583826 23.505343 22.270213 47.594995 27.91477 73.460082 1.786693 7.632841 2.971681 15.57165 2.676969 23.499204 0 7.938809-0.989537 19.24839-3.065825 26.892487-2.081405 7.93267-5.343705 15.57165-4.753257 24.089651l0 4.119831c0.595564 6.752798 2.081405 12.927427 7.42511 17.631566 9.501398 8.518001 25.837458 5.578042 32.372292-5.878894 3.856841-6.764054 4.748141-14.396895 4.157693-22.040992-0.595564-10.577916-2.676969-21.149693-5.348821-31.733749-7.719822-31.733749-20.992103-65.379033-37.027311-93.883227-8.315386-14.69263-17.522072-28.499078-28.214599-41.130769-2.081405-2.354628-4.152577-2.939959-6.233981-1.475608-2.081405 1.475608-2.676969 3.824095-0.890276 6.463202C606.759177 315.487348 610.622158 322.245262 613.889575 329.298911L613.889575 329.298911z" p-id="5376" fill="#b3b3b3"></path><path d="M956.907952 487.965607c-1.602498-2.291183-4.317329-2.204202-6.553253-2.62785-11.905144-2.254344-23.835871-4.411473-35.812647-6.239098-21.327748-3.25616-42.736337-5.860475-64.247256-7.631818-24.654516-2.030239-49.317219-3.798513-74.069973-3.945869-2.668783-0.016373-5.336542-0.040932-8.005324-0.083911-24.02109-0.398066-48.012504 0.476861-71.999824 1.595334-0.726547 0.032746-1.455141 0.069585-2.178619 0.141216-18.329461 1.826602-36.756135 2.663666-55.000662 5.373381-17.735943 2.63399-35.567054 4.747117-53.195549 7.959276-7.765871 1.415232-15.506159 2.967588-23.227004 4.622274 0.762363 11.208273-0.64059 22.37152-6.297426 32.29145-9.81453 17.207917-34.350342 21.62246-48.620347 8.830109-7.473205-6.578836-9.920954-15.0733-10.945283-24.399713-29.017894 8.661264-57.417711 19.025309-85.194334 31.141254 0.846274 14.478759-1.101077 28.863375-8.410554 41.680285-12.999059 22.791076-45.494147 28.638247-64.394612 11.694343-3.8814-3.416819-6.731308-7.227612-8.853645-11.338233-32.107255 19.315928-62.549591 41.212634-91.285053 65.756633-21.240767 18.144242-41.289382 37.520545-60.192917 58.072627-20.88261 22.700001-40.168862 46.697555-58.021461 71.852468-19.395746 27.329439-36.914748 55.81726-52.794413 85.318154-0.462534 0.860601-1.667989 1.830695-0.125867 3.773953 0.808412-1.087774 1.445932-2.114151 2.246157-2.995217 19.894096-21.940708 41.019229-42.649356 62.799278-62.71025 31.789007-29.27986 65.019853-56.805774 99.714026-82.573647 36.249599-26.923186 73.7814-51.909254 112.728434-74.756611 59.533908-34.925441 121.54217-64.632019 186.345082-88.48631 21.849634-8.04114 43.916209-15.435551 66.2294-22.011316 22.076808-6.508227 44.292785-12.588713 66.845431-17.311271 14.703887-3.078105 29.340235-6.54302 44.129056-9.134031 17.417695-3.048429 34.936697-5.565762 52.466955-7.888667 15.370059-2.036379 30.791284-3.793396 46.238091-5.107321 15.216563-1.294482 30.483268-2.14792 45.74588-2.713808 32.985252-1.220804 65.961294-0.539282 98.915847 1.235131 1.687432 0.091074 3.363607 0.419556 5.047969 0.63752L956.907952 487.965607z" p-id="5377" fill="#b3b3b3"></path></svg>