<?xml version="1.0" standalone="no"?><!DOCTYPE svg PUBLIC "-//W3C//DTD SVG 1.1//EN" "http://www.w3.org/Graphics/SVG/1.1/DTD/svg11.dtd"><svg t="1501389486407" class="icon" style="" viewBox="0 0 1049 1024" version="1.1" xmlns="http://www.w3.org/2000/svg" p-id="3397" xmlns:xlink="http://www.w3.org/1999/xlink" width="16.390625" height="16"><defs><style type="text/css"></style></defs><path d="M412.16 634.88c92.16 92.16 197.12 179.2 238.08 135.68 58.88-58.88 97.28-112.64 227.84-7.68 133.12 104.96 30.72 176.64-25.6 235.52-66.56 66.56-314.88 5.12-563.2-240.64-245.76-245.76-312.32-494.08-245.76-563.2 58.88-58.88 128-158.72 232.96-28.16 107.52 130.56 53.76 168.96-5.12 227.84-35.84 43.52 51.2 148.48 140.8 240.64z m133.12-435.2s-28.16-5.12-46.08 15.36c-20.48 20.48-20.48 53.76 0 74.24 12.8 12.8 30.72 15.36 30.72 15.36 33.28 5.12 84.48 17.92 140.8 71.68 53.76 53.76 66.56 104.96 71.68 140.8 0 0 2.56 17.92 15.36 30.72 20.48 20.48 56.32 20.48 74.24 0 20.48-20.48 15.36-46.08 15.36-46.08-10.24-69.12-43.52-140.8-102.4-199.68-58.88-56.32-130.56-89.6-199.68-102.4z m258.56 43.52c99.84 99.84 143.36 215.04 128 307.2 0 0-5.12 28.16 15.36 48.64 20.48 20.48 56.32 20.48 74.24 0 12.8-12.8 15.36-33.28 15.36-33.28 10.24-79.36-2.56-240.64-158.72-396.8-156.16-156.16-314.88-171.52-394.24-158.72 0 0-20.48 2.56-33.28 15.36-20.48 20.48-20.48 53.76 0 76.8 17.92 17.92 48.64 15.36 48.64 15.36 92.16-17.92 204.8 23.04 304.64 125.44z" p-id="3398" fill="#ffffff"></path></svg>