<?xml version="1.0" standalone="no"?><!DOCTYPE svg PUBLIC "-//W3C//DTD SVG 1.1//EN" "http://www.w3.org/Graphics/SVG/1.1/DTD/svg11.dtd"><svg t="1510641215734" class="icon" style="" viewBox="0 0 1024 1024" version="1.1" xmlns="http://www.w3.org/2000/svg" p-id="2774" xmlns:xlink="http://www.w3.org/1999/xlink" width="64" height="64"><defs><style type="text/css"></style></defs><path d="M867.792309 400.196635c-7.55814 35.137265-17.839297 72.431659-30.558993 110.085234-56.763818 168.034041-166.157297 341.980745-321.137021 345.386308-154.161079-3.413749-265.129426-178.240497-317.612755-346.670557-49.226145-157.980058-44.661176-310.333978-44.661176-310.333978l34.794457-30.699186c0 0-4.03592 173.489286 47.834448 341.748455 48.877197 158.550039 149.575644 312.456315 280.820803 312.185138 131.424238-0.271176 230.598982-153.886833 284.158828-311.792189 14.087856-41.533952 27.242458-82.95841 33.741475-122.778324 6.360871-38.968523 20.992103-33.122375 29.167297-31.04097C873.068476 358.508163 873.663016 372.901988 867.792309 400.196635zM774.126023 318.164317c0.170892 0.170892 0.683569 0.854461 1.538029 2.050706 0.854461 1.196245 1.794879 2.563382 2.820232 4.102435l3.076058 4.102435c1.025353 1.538029 1.794879 2.64934 2.307555 3.332908 0.854461 1.367137 1.025353 2.307555 0.512676 2.820232-0.512676 0.512676-1.196245 0.341784-2.050706-0.512676-0.341784-0.341784-1.068332-0.940418-2.179642-1.794879-1.111311-0.854461-2.307555-1.708921-3.589758-2.563382-1.282203-0.854461-2.478448-1.708921-3.589758-2.563382s-1.922792-1.538029-2.435469-2.050706c-2.221598-1.708921-3.674693-2.221598-4.358261-1.538029s-2.050706 1.623987-4.102435 2.820232c-1.367137 0.683569-2.221598 2.307555-2.563382 4.870938 0 0.341784-0.298805 2.221598-0.89744 5.640464-0.598634 3.417843-1.282203 7.520277-2.050706 12.30628-0.769526 4.786003-1.623987 9.998725-2.563382 15.639189-0.940418 5.640464-1.794879 10.939143-2.563382 15.895015-0.769526 4.956895-1.453095 9.229199-2.050706 12.818957-0.598634 3.589758-0.982374 5.811356-1.153266 6.665817-0.512676 2.563382-1.196245 3.931542-2.050706 4.102435s-1.453095-1.196245-1.794879-4.102435c0-0.854461-0.298805-3.119037-0.89744-6.79373-0.598634-3.674693-1.239224-7.989975-1.922792-12.94687-0.683569-4.956895-1.453095-10.212596-2.307555-15.767102-0.854461-5.554506-1.623987-10.682293-2.307555-15.382339s-1.282203-8.716522-1.794879-12.04943c-0.512676-3.332908-0.854461-5.255701-1.025353-5.768377l-0.512676-2.563382c-0.170892-0.854461-0.683569-1.453095-1.538029-1.794879-0.683569-0.341784-1.282203-0.683569-1.794879-1.025353-0.512676-0.341784-1.111311-0.683569-1.794879-1.025353-1.538029-1.025353-2.905166-1.025353-4.102435 0-0.341784 0.170892-1.153266 0.726547-2.435469 1.665942s-2.64934 1.965771-4.102435 3.076058-2.863211 2.136663-4.230348 3.076058c-1.367137 0.940418-2.307555 1.581008-2.820232 1.922792-2.563382 1.708921-3.417843 1.708921-2.563382 0 0.341784-0.341784 1.025353-1.196245 2.050706-2.563382 1.025353-1.367137 2.093684-2.863211 3.204995-4.486174 1.111311-1.623987 2.221598-3.162016 3.332908-4.615111 1.111311-1.453095 1.7519-2.350534 1.922792-2.692319 1.196245-1.538029 1.453095-2.820232 0.769526-3.845585-0.341784-0.512676-0.726547-1.068332-1.153266-1.665942-0.427742-0.598634-0.811482-1.324158-1.153266-2.179642-0.512676-0.854461-1.239224-1.538029-2.179642-2.050706s-2.350534-0.940418-4.230348-1.282203c-0.683569-0.170892-2.734274-0.512676-6.15314-1.025353-3.418866-0.512676-7.563256-1.111311-12.434194-1.794879s-10.083659-1.453095-15.639189-2.307555c-5.554506-0.854461-10.725272-1.623987-15.511275-2.307555s-8.887414-1.282203-12.30628-1.794879c-3.417843-0.512676-5.383614-0.769526-5.89629-0.769526-1.708921-0.341784-2.478448-0.982374-2.307555-1.922792 0.170892-0.940418 0.940418-1.581008 2.307555-1.922792 0.512676 0 2.563382-0.298805 6.15314-0.89744s7.948019-1.282203 13.074783-2.050706c5.127787-0.769526 10.639315-1.665942 16.536628-2.692319 5.89629-1.025353 11.408841-1.922792 16.536628-2.692319 5.127787-0.769526 9.400091-1.453095 12.818957-2.050706 3.417843-0.598634 5.212722-0.89744 5.383614-0.89744 0.683569 0 1.324158-0.085958 1.922792-0.25685 0.598634-0.170892 1.068332-0.683569 1.410116-1.538029 0.341784-0.683569 0.854461-1.538029 1.538029-2.563382 0.683569-1.025353 1.196245-1.708921 1.538029-2.050706 0.341784-0.341784 0.598634-0.811482 0.769526-1.410116s-0.084934-1.324158-0.769526-2.179642c-0.341784-0.512676-1.025353-1.410116-2.050706-2.692319-1.025353-1.282203-2.136663-2.692319-3.332908-4.230348-1.196245-1.538029-2.264577-2.991124-3.204995-4.358261s-1.581008-2.307555-1.922792-2.820232c-0.683569-0.854461-0.769526-1.367137-0.25685-1.538029s1.196245 0 2.050706 0.512676c0.341784 0.341784 1.196245 1.025353 2.563382 2.050706 1.367137 1.025353 2.820232 2.093684 4.358261 3.204995s2.991124 2.136663 4.358261 3.076058c1.367137 0.940418 2.221598 1.581008 2.563382 1.922792 0.854461 0.512676 1.538029 0.769526 2.050706 0.769526s0.940418-0.085958 1.282203-0.25685c0.341784-0.341784 0.811482-0.683569 1.410116-1.025353 0.598634-0.341784 1.239224-0.683569 1.922792-1.025353 0.512676-0.341784 0.982374-0.769526 1.410116-1.282203 0.427742-0.512676 0.811482-1.453095 1.153266-2.820232 0-0.341784 0.25685-2.307555 0.769526-5.89629 0.512676-3.589758 1.153266-7.989975 1.922792-13.20372 0.769526-5.212722 1.581008-10.853186 2.435469-16.920368 0.854461-6.067182 1.708921-11.750625 2.563382-17.049305 0.854461-5.298679 1.538029-9.870812 2.050706-13.716396 0.512676-3.845585 0.854461-6.110161 1.025353-6.79373 0.341784-2.39249 0.811482-3.375887 1.410116-2.948145s1.068332 1.581008 1.410116 3.460822c0.170892 0.683569 0.555655 2.905166 1.153266 6.665817 0.598634 3.76065 1.324158 8.331759 2.179642 13.716396s1.7519 11.110035 2.692319 17.177218c0.940418 6.067182 1.837858 11.707646 2.692319 16.920368 0.854461 5.212722 1.581008 9.656941 2.179642 13.331633s0.89744 5.683443 0.89744 6.025227c0.512676 1.879813 1.196245 3.076058 2.050706 3.589758l1.538029 1.025353c0.512676 0.341784 1.111311 0.683569 1.794879 1.025353 0.683569 0.341784 1.453095 0.427742 2.307555 0.25685 0.854461-0.170892 1.538029-0.427742 2.050706-0.769526 0.170892-0.170892 0.940418-0.769526 2.307555-1.794879s2.905166-2.136663 4.615111-3.332908c1.708921-1.196245 3.289929-2.307555 4.743024-3.332908s2.264577-1.623987 2.435469-1.794879c0.683569-0.341784 1.453095-0.64059 2.307555-0.89744 0.854461-0.25685 0.854461 0.298805 0 1.665942-0.512676 0.512676-1.367137 1.581008-2.563382 3.204995-1.196245 1.623987-2.435469 3.332908-3.717671 5.127787s-2.478448 3.417843-3.589758 4.870938c-1.111311 1.453095-1.837858 2.435469-2.179642 2.948145-0.683569 0.854461-0.726547 1.7519-0.127913 2.692319 0.598634 0.940418 1.239224 1.922792 1.922792 2.948145 0.512676 1.025353 1.282203 1.623987 2.307555 1.794879l3.076058 0.512676c0.341784 0 2.179642 0.298805 5.51255 0.89744 3.332908 0.598634 7.435343 1.282203 12.30628 2.050706s10.126638 1.623987 15.767102 2.563382c5.640464 0.940418 10.939143 1.794879 15.895015 2.563382 4.956895 0.769526 9.229199 1.453095 12.818957 2.050706 3.589758 0.598634 5.725398 0.982374 6.408967 1.153266 2.39249 0.341784 3.931542 0.982374 4.615111 1.922792 0.683569 0.940418-0.854461 1.665942-4.615111 2.179642-1.196245 0.170892-3.717671 0.555655-7.563256 1.153266-3.845585 0.598634-8.331759 1.282203-13.459546 2.050706-5.127787 0.769526-10.55438 1.538029-16.279778 2.307555s-10.981099 1.538029-15.767102 2.307555c-4.786003 0.769526-8.80248 1.367137-12.04943 1.794879s-4.956895 0.64059-5.127787 0.64059c-0.683569 0.170892-1.324158 0.341784-1.922792 0.512676s-1.068332 0.512676-1.410116 1.025353c-0.170892 0.512676-0.427742 1.111311-0.769526 1.794879-0.341784 0.683569-0.683569 1.282203-1.025353 1.794879C773.271562 316.284503 773.271562 317.309856 774.126023 318.164317L774.126023 318.164317zM896.221802 241.482867c0.096191 0.096191 0.38374 0.479931 0.86367 1.151219 0.479931 0.671289 1.006933 1.438769 1.583055 2.302439l1.727341 2.302439c0.576121 0.86367 1.006933 1.486864 1.295506 1.870604 0.479931 0.76748 0.576121 1.295506 0.287549 1.583055-0.287549 0.287549-0.671289 0.192382-1.151219-0.287549-0.192382-0.192382-0.599657-0.528026-1.222851-1.006933-0.623193-0.479931-1.295506-0.959861-2.01489-1.438769-0.719384-0.479931-1.390673-0.959861-2.01489-1.438769-0.623193-0.479931-1.079588-0.86367-1.367137-1.151219-1.24741-0.959861-2.062985-1.24741-2.446725-0.86367s-1.151219 0.911766-2.302439 1.583055c-0.76748 0.38374-1.24741 1.295506-1.438769 2.734274 0 0.192382-0.167822 1.24741-0.503467 3.166109-0.335644 1.918699-0.719384 4.221138-1.151219 6.907317-0.431835 2.686179-0.911766 5.612834-1.438769 8.777921s-1.006933 6.139837-1.438769 8.922207c-0.431835 2.78237-0.815575 5.180999-1.151219 7.194866s-0.551562 3.2623-0.647753 3.741207c-0.287549 1.438769-0.671289 2.206248-1.151219 2.302439s-0.815575-0.671289-1.006933-2.302439c0-0.479931-0.167822-1.750877-0.503467-3.813862-0.335644-2.062985-0.695848-4.485151-1.079588-7.267521-0.38374-2.78237-0.815575-5.732561-1.295506-8.850575-0.479931-3.118014-0.911766-5.996574-1.295506-8.634658-0.38374-2.638083-0.719384-4.892427-1.006933-6.764054-0.287549-1.870604-0.479931-2.950192-0.576121-3.237741l-0.287549-1.438769c-0.096191-0.479931-0.38374-0.815575-0.86367-1.006933-0.38374-0.192382-0.719384-0.38374-1.006933-0.576121-0.287549-0.192382-0.623193-0.38374-1.006933-0.576121-0.86367-0.576121-1.63115-0.576121-2.302439 0-0.192382 0.096191-0.647753 0.407276-1.367137 0.935302-0.719384 0.528026-1.486864 1.103124-2.302439 1.727341s-1.606591 1.199315-2.37407 1.727341c-0.76748 0.528026-1.295506 0.887206-1.583055 1.079588-1.438769 0.959861-1.918699 0.959861-1.438769 0 0.192382-0.192382 0.576121-0.671289 1.151219-1.438769 0.576121-0.76748 1.174756-1.606591 1.798972-2.518357s1.24741-1.774413 1.870604-2.589988c0.623193-0.815575 0.983397-1.319042 1.079588-1.511423 0.671289-0.86367 0.815575-1.583055 0.431835-2.158153-0.192382-0.287549-0.407276-0.599657-0.647753-0.935302-0.239454-0.335644-0.455371-0.743944-0.647753-1.222851-0.287549-0.479931-0.695848-0.86367-1.222851-1.151219-0.528026-0.287549-1.319042-0.528026-2.37407-0.719384-0.38374-0.096191-1.534959-0.287549-3.453658-0.576121-1.918699-0.287549-4.245697-0.623193-6.978948-1.006933-2.734274-0.38374-5.659907-0.815575-8.777921-1.295506-3.118014-0.479931-6.02011-0.911766-8.706289-1.295506-2.686179-0.38374-4.988618-0.719384-6.907317-1.006933-1.918699-0.287549-3.021823-0.431835-3.309372-0.431835-0.959861-0.192382-1.390673-0.551562-1.295506-1.079588 0.096191-0.528026 0.528026-0.887206 1.295506-1.079588 0.287549 0 1.438769-0.167822 3.453658-0.503467s4.460592-0.719384 7.339152-1.151219 5.972015-0.935302 9.282411-1.511423c3.309372-0.576121 6.40385-1.079588 9.282411-1.511423 2.87856-0.431835 5.276167-0.815575 7.194866-1.151219 1.918699-0.335644 2.925632-0.503467 3.021823-0.503467 0.38374 0 0.743944-0.048095 1.079588-0.144286 0.335644-0.096191 0.599657-0.38374 0.791016-0.86367 0.192382-0.38374 0.479931-0.86367 0.86367-1.438769s0.671289-0.959861 0.86367-1.151219c0.192382-0.192382 0.335644-0.455371 0.431835-0.791016 0.096191-0.335644-0.048095-0.743944-0.431835-1.222851-0.192382-0.287549-0.576121-0.791016-1.151219-1.511423-0.576121-0.719384-1.199315-1.511423-1.870604-2.37407-0.671289-0.86367-1.270946-1.679245-1.798972-2.446725-0.528026-0.76748-0.887206-1.295506-1.079588-1.583055-0.38374-0.479931-0.431835-0.76748-0.144286-0.86367 0.287549-0.096191 0.671289 0 1.151219 0.287549 0.192382 0.192382 0.671289 0.576121 1.438769 1.151219s1.583055 1.174756 2.446725 1.798972c0.86367 0.623193 1.679245 1.199315 2.446725 1.727341 0.76748 0.528026 1.24741 0.887206 1.438769 1.079588 0.479931 0.287549 0.86367 0.431835 1.151219 0.431835 0.287549 0 0.528026-0.048095 0.719384-0.144286 0.192382-0.192382 0.455371-0.38374 0.791016-0.576121 0.335644-0.192382 0.695848-0.38374 1.079588-0.576121 0.287549-0.192382 0.551562-0.431835 0.791016-0.719384 0.239454-0.287549 0.455371-0.815575 0.647753-1.583055 0-0.192382 0.144286-1.295506 0.431835-3.309372 0.287549-2.01489 0.647753-4.485151 1.079588-7.410783 0.431835-2.925632 0.887206-6.091742 1.367137-9.498328s0.959861-6.595208 1.438769-9.56996c0.479931-2.973728 0.86367-5.54018 1.151219-7.699356 0.287549-2.158153 0.479931-3.430122 0.576121-3.813862 0.192382-1.343601 0.455371-1.895163 0.791016-1.654686 0.335644 0.239454 0.599657 0.887206 0.791016 1.942235 0.096191 0.38374 0.312108 1.63115 0.647753 3.741207 0.335644 2.111081 0.743944 4.676509 1.222851 7.699356 0.479931 3.021823 0.983397 6.236028 1.511423 9.641591 0.528026 3.405563 1.031493 6.571672 1.511423 9.498328 0.479931 2.925632 0.887206 5.420453 1.222851 7.483438 0.335644 2.062985 0.503467 3.189645 0.503467 3.382027 0.287549 1.055029 0.671289 1.727341 1.151219 2.01489l0.86367 0.576121c0.287549 0.192382 0.623193 0.38374 1.006933 0.576121 0.38374 0.192382 0.815575 0.239454 1.295506 0.144286 0.479931-0.096191 0.86367-0.239454 1.151219-0.431835 0.096191-0.096191 0.528026-0.431835 1.295506-1.006933 0.76748-0.576121 1.63115-1.199315 2.589988-1.870604 0.959861-0.671289 1.847068-1.295506 2.662643-1.870604 0.815575-0.576121 1.270946-0.911766 1.367137-1.006933 0.38374-0.192382 0.815575-0.360204 1.295506-0.503467 0.479931-0.144286 0.479931 0.167822 0 0.935302-0.287549 0.287549-0.76748 0.887206-1.438769 1.798972-0.671289 0.911766-1.367137 1.870604-2.086521 2.87856-0.719384 1.006933-1.390673 1.918699-2.01489 2.734274-0.623193 0.815575-1.031493 1.367137-1.222851 1.654686-0.38374 0.479931-0.407276 0.983397-0.071631 1.511423s0.695848 1.079588 1.079588 1.654686c0.287549 0.576121 0.719384 0.911766 1.295506 1.006933l1.727341 0.287549c0.192382 0 1.222851 0.167822 3.093455 0.503467 1.870604 0.335644 4.173043 0.719384 6.907317 1.151219 2.734274 0.431835 5.684466 0.911766 8.850575 1.438769 3.166109 0.528026 6.139837 1.006933 8.922207 1.438769 2.78237 0.431835 5.180999 0.815575 7.194866 1.151219 2.01489 0.335644 3.214205 0.551562 3.597945 0.647753 1.343601 0.192382 2.206248 0.551562 2.589988 1.079588s-0.479931 0.935302-2.589988 1.222851c-0.671289 0.096191-2.086521 0.312108-4.245697 0.647753-2.158153 0.335644-4.676509 0.719384-7.55507 1.151219-2.87856 0.431835-5.92392 0.86367-9.138124 1.295506-3.214205 0.431835-6.164397 0.86367-8.850575 1.295506-2.686179 0.431835-4.940522 0.76748-6.764054 1.006933-1.822508 0.239454-2.78237 0.360204-2.87856 0.360204-0.38374 0.096191-0.743944 0.192382-1.079588 0.287549s-0.599657 0.287549-0.791016 0.576121c-0.096191 0.287549-0.239454 0.623193-0.431835 1.006933-0.192382 0.38374-0.38374 0.719384-0.576121 1.006933C895.742894 240.427838 895.742894 241.002936 896.221802 241.482867L896.221802 241.482867z" p-id="2775" fill="#b3b3b3"></path></svg>