<?xml version="1.0" standalone="no"?><!DOCTYPE svg PUBLIC "-//W3C//DTD SVG 1.1//EN" "http://www.w3.org/Graphics/SVG/1.1/DTD/svg11.dtd"><svg t="1501389354024" class="icon" style="" viewBox="0 0 1024 1024" version="1.1" xmlns="http://www.w3.org/2000/svg" p-id="2594" xmlns:xlink="http://www.w3.org/1999/xlink" width="16" height="16"><defs><style type="text/css"></style></defs><path d="M947.2 480.6656c-0.4096-15.1552-3.4816-26.2144-14.336-41.5744-2.048-3.072-335.0528-351.8464-335.0528-351.8464-23.1424-24.1664-53.6576-35.6352-84.1728-35.84V51.2c-0.4096 0-1.024 0.2048-1.4336 0.2048-0.6144 0-1.024-0.2048-1.6384-0.2048v0.2048c-30.5152 0-61.0304 11.6736-84.3776 35.84 0 0-332.8 348.7744-334.848 351.8464-10.8544 15.36-13.9264 26.4192-14.336 41.5744v5.7344c0 47.5136 39.3216 86.2208 87.8592 86.2208h21.0944v309.248c0 50.3808 46.08 91.136 103.0144 91.136 56.7296 0 102.8096-40.7552 102.8096-91.136v-309.248h240.8448v309.248c0 50.3808 46.08 91.136 103.0144 91.136 56.7296 0 102.8096-40.7552 102.8096-91.136v-309.248h21.0944c48.7424 0 88.064-38.7072 88.064-86.2208 0-0.4096-0.2048-0.8192-0.2048-1.2288l-0.2048-4.5056z m-131.072-311.7056l0.6144 0.6144 66.1504 68.608c9.4208 9.6256 24.7808 10.0352 34.6112 1.024 0.2048 0 0.2048-0.2048 0.4096-0.2048l0.8192-0.8192c2.8672-3.072 4.7104-5.7344 5.7344-10.8544 0.2048-1.024 0.4096-2.048 0.4096-3.072 0.2048-1.024 0.4096-2.2528 0.6144-3.4816l7.5776-127.1808c0.6144-9.216-2.8672-17.6128-8.8064-23.552-0.2048 0-0.2048-0.2048-0.4096-0.2048l-0.4096-0.4096c-5.9392-6.144-14.1312-9.8304-23.552-9.8304H770.048c-1.2288 0-2.4576 0.2048-3.6864 0.2048-1.024 0-2.048 0.2048-3.072 0.2048-5.3248 0.8192-8.192 2.2528-11.4688 5.12l-0.8192 0.8192-0.2048 0.2048c-9.8304 9.216-10.24 24.3712-1.024 33.9968l66.3552 68.8128z" fill="#ffffff" p-id="2595"></path></svg>