<?xml version="1.0" standalone="no"?><!DOCTYPE svg PUBLIC "-//W3C//DTD SVG 1.1//EN" "http://www.w3.org/Graphics/SVG/1.1/DTD/svg11.dtd"><svg t="1510632239618" class="icon" style="" viewBox="0 0 1024 1024" version="1.1" xmlns="http://www.w3.org/2000/svg" p-id="4845" xmlns:xlink="http://www.w3.org/1999/xlink" width="48" height="48"><defs><style type="text/css"></style></defs><path d="M156.15488 215.30112a25.89184 25.89184 0 0 1-25.89696 25.89696H33.15712a25.89184 25.89184 0 0 1-25.89696-25.89696V118.20544a25.89184 25.89184 0 0 1 25.89696-25.89184h97.1008a25.88672 25.88672 0 0 1 25.89696 25.89184v97.09568z m860.93312 0a25.88672 25.88672 0 0 1-25.89184 25.89696H285.6192a25.88672 25.88672 0 0 1-25.89184-25.89696V118.20544a25.88672 25.88672 0 0 1 25.89184-25.89184h705.58208a25.88672 25.88672 0 0 1 25.89184 25.89184v97.09568z m-860.93312 346.3168a25.89184 25.89184 0 0 1-25.89696 25.89696H33.15712a25.89184 25.89184 0 0 1-25.89696-25.89696V464.51712a25.89184 25.89184 0 0 1 25.89696-25.89696h97.1008a25.88672 25.88672 0 0 1 25.89184 25.89696l0.00512 97.1008z m860.93312 0a25.88672 25.88672 0 0 1-25.89184 25.89696H285.6192a25.88672 25.88672 0 0 1-25.89184-25.89696V464.51712a25.88672 25.88672 0 0 1 25.89184-25.89696h705.58208a25.88672 25.88672 0 0 1 25.89184 25.89696v97.1008zM156.15488 907.9296a25.88672 25.88672 0 0 1-25.89696 25.89184H33.15712a25.88672 25.88672 0 0 1-25.89696-25.89184v-97.09568a25.89696 25.89696 0 0 1 25.89696-25.89696h97.1008a25.89184 25.89184 0 0 1 25.89184 25.89696l0.00512 97.09568z m860.93312 0a25.88672 25.88672 0 0 1-25.89184 25.89184H285.6192a25.88672 25.88672 0 0 1-25.89184-25.89184v-97.09568a25.89184 25.89184 0 0 1 25.89184-25.89696h705.58208a25.89184 25.89184 0 0 1 25.89184 25.89696v97.09568z" p-id="4846" fill="#ffffff"></path></svg>