<?xml version="1.0" standalone="no"?><!DOCTYPE svg PUBLIC "-//W3C//DTD SVG 1.1//EN" "http://www.w3.org/Graphics/SVG/1.1/DTD/svg11.dtd"><svg t="1509174735731" class="icon" style="" viewBox="0 0 1024 1024" version="1.1" xmlns="http://www.w3.org/2000/svg" p-id="6764" xmlns:xlink="http://www.w3.org/1999/xlink" width="48" height="48"><defs><style type="text/css"></style></defs><path d="M765.246293 676.150672a62.06054 62.06054 0 0 0-62.06054-62.06054H534.381084a62.06054 62.06054 0 1 0 0 122.724718h169.425274a62.06054 62.06054 0 0 0 61.439935-60.664178z m-198.128274 79.28234a62.06054 62.06054 0 1 0 0 122.724718h104.106556a62.06054 62.06054 0 1 0 0-122.724718z m-46.545406-279.272431a62.06054 62.06054 0 1 0 0 122.724718h197.352518a62.06054 62.06054 0 0 0 0-122.724718z m-28.703-76.334464a62.06054 62.06054 0 0 0 62.060541 62.06054H689.532434a62.06054 62.06054 0 0 0 0-122.724719h-136.378037a62.06054 62.06054 0 0 0-61.439935 60.974481zM192.272355 705.939731a156.082259 156.082259 0 0 0 75.248406 135.757432c66.559929 41.425411 118.535632 36.460567 232.727025 36.460567h20.169676a81.764762 81.764762 0 0 1 0-122.724718 82.075064 82.075064 0 0 1-28.547849-143.980453 82.230216 82.230216 0 0 1 11.4812-152.203475 82.540519 82.540519 0 0 1 57.561151-141.963486h16.290892l-1.24121-7.757567C565.411354 240.330528 651.365202 264.068685 645.003997 124.432469c-5.7406-127.999864-116.363513-136.533189-137.619248-115.742907-9.309081 9.15393 32.736935 119.621691-94.952627 226.831274-104.57201 87.815664-221.556129 124.12108-220.159767 235.674902 0.775757 78.506583-0.930908 234.743993 0 234.743993z m572.973938 90.918692a23.272703 23.272703 0 0 0 0 46.545405c53.216913 0 80.989005 26.220578 80.989005 40.339351 0 38.167232-130.327135 93.09081-334.35116 93.09081S177.532977 921.910411 177.532977 883.743179c0-11.4812 13.187865-25.444821 36.305416-38.477535a23.272703 23.272703 0 1 0-22.807248-40.494502C141.382712 832.698385 130.987572 863.108049 130.987572 883.743179c0 92.159902 191.611918 139.636216 380.896566 139.636216s380.896566-48.25207 380.896565-139.636216c0-41.890865-48.096919-87.039908-127.53441-87.039908z" p-id="6765" fill="#ffffff"></path></svg>