<?xml version="1.0" standalone="no"?><!DOCTYPE svg PUBLIC "-//W3C//DTD SVG 1.1//EN" "http://www.w3.org/Graphics/SVG/1.1/DTD/svg11.dtd"><svg t="1509174942694" class="icon" style="" viewBox="0 0 1024 1024" version="1.1" xmlns="http://www.w3.org/2000/svg" p-id="12032" xmlns:xlink="http://www.w3.org/1999/xlink" width="48" height="48"><defs><style type="text/css"></style></defs><path d="M8.243765 572.345369c0-334.583598 245.845947-555.900127 535.540166-555.900127 257.631385 0 421.195743 174.265395 421.195743 423.31823 0 219.155781-144.326054 330.334598-267.249027 330.334598-68.415952 0-124.007375-32.065856-135.750524-91.941519l-2.160748 0c-35.272743 48.093246-96.194547 81.239475-146.452567 81.239475-91.941519 0-156.069203-68.415952-156.069203-179.594769 0-142.161278 102.604294-292.901107 241.600974-292.901107 40.637358 0 72.703214 18.196193 92.983631 59.878684l2.160748 0 17.077558-50.258021 97.309154 0-52.380507 260.835252c-19.276566 78.070849 0 114.386712 57.713909 114.386712 73.783587 0 149.655428-87.654257 149.655428-226.607641 0-180.679171-99.435668-331.376711-332.457085-331.376711-209.534111 0-415.824081 178.514396-415.824081 454.299684 0 238.390059 162.482978 358.109165 357.028791 358.109165 65.209065 0 135.747503-20.284445 187.089925-49.177647l35.269723 87.654257c-72.664952 40.637358-149.655428 58.794282-235.186192 58.794282C217.777877 1023.439172 8.243765 874.864118 8.243765 572.345369zM535.246663 600.120943l30.981454-171.020247c-16.031418-26.732454-36.311835-39.595245-63.082551-39.595245-77.998354 0-127.210235 103.722929-127.210235 181.759544 0 59.840423 28.893202 88.69637 70.5767 88.69637C474.287606 659.961365 501.058321 642.883808 535.246663 600.120943z" fill="#ffffff" p-id="12033"></path></svg>