<?xml version="1.0" standalone="no"?><!DOCTYPE svg PUBLIC "-//W3C//DTD SVG 1.1//EN" "http://www.w3.org/Graphics/SVG/1.1/DTD/svg11.dtd"><svg t="1510641580434" class="icon" style="" viewBox="0 0 1024 1024" version="1.1" xmlns="http://www.w3.org/2000/svg" p-id="3296" xmlns:xlink="http://www.w3.org/1999/xlink" width="48" height="48"><defs><style type="text/css"></style></defs><path d="M728.054303 537.63103a146.342788 146.342788 0 0 1 47.610828 29.575758V409.341414h80.777051l12.798707 158.158869 96.389172 234.086141h-190.060606v-27.929858c-28.413414 25.890909-67.587879 41.890909-110.738101 41.890909H215.376808c-43.248485 0-82.424242-16.098263-110.933333-41.987879C76.030061 747.668687 58.382869 711.886869 58.382869 672.421495c0-32.583111 12.024242-62.643717 32.290909-86.787879 4.266667-5.722505 9.018182-11.055838 14.158868-16.098262a146.466909 146.466909 0 0 1 28.99394-22.009536v-105.892202h32.290909V228.492929h297.115151L478.262949 253.414141l113.842425 188.316445h29.575757v-27.927273h-10.569697v-113.648485h10.569697v-10.472727l-42.084848-44.993939L617.511434 210.747475l55.756283 59.733333v29.769697h9.504323v113.551515h-9.504323v27.830303h54.789172v96h-0.002586v-0.001293z m-514.327273 87.855839c-24.145455 0-43.830303 19.2-43.830303 42.957575 0 23.661899 19.587879 42.860606 43.830303 42.860607s43.830303-19.2 43.830303-42.860607c0-23.757576-19.684848-42.957576-43.830303-42.957575z m132.169697 1.164929v85.818182h193.454546v-85.818182H345.896727z m330.472728-1.164929c-24.243717 0-43.82901 19.2-43.829011 42.957575 0 23.661899 19.586586 42.860606 43.829011 42.860607 24.145455 0 43.830303-19.2 43.830303-42.860607 0-23.757576-19.587879-42.957576-43.830303-42.957575z m-11.539394-25.890909H215.375515c-21.915152 0-41.890909 8.242424-56.436363 21.42901-14.448485 13.189172-23.46796 31.419475-23.46796 51.396525 0 20.070141 9.019475 34.909091 23.46796 48.095677 14.448485 13.189172 34.424242 21.431596 56.436363 21.431596h449.454546c21.915152 0 41.890909-8.242424 56.436363-21.431596 14.544162-13.186586 23.562343-28.121212 23.562344-48.095677 0-19.977051-9.018182-38.207354-23.562344-51.396525-14.451071-13.282263-34.424242-21.42901-56.436363-21.42901zM269.290667 441.632323h203.055838L404.564687 329.438384H269.29196l-0.001293 112.193939z" p-id="3297" fill="#ffffff"></path></svg>