<?xml version="1.0" standalone="no"?><!DOCTYPE svg PUBLIC "-//W3C//DTD SVG 1.1//EN" "http://www.w3.org/Graphics/SVG/1.1/DTD/svg11.dtd"><svg t="1509174792408" class="icon" style="" viewBox="0 0 1024 1024" version="1.1" xmlns="http://www.w3.org/2000/svg" p-id="8310" xmlns:xlink="http://www.w3.org/1999/xlink" width="48" height="48"><defs><style type="text/css"></style></defs><path d="M274.348 298.744c25.376 77.01 95.988 76.872 121.268 0 8.334-4.376 16.932-17.386 18.322-28.13 1.482-11.25 0.586-26.238-10.728-26.238-2.468-36.08-22.272-66.624-67.294-66.624-43.99 0-66.37 26.486-69.162 66.624-11.314 0-12.194 14.986-10.712 26.238 1.392 10.744 9.972 23.754 18.306 28.13z" p-id="8311" fill="#ffffff"></path><path d="M437.336 740.402V713.64c29.464 0 53.31-23.924 53.31-53.404v-1.776l207.518-207.496c5.632-5.618 5.632-14.724 0-20.304a14.26 14.26 0 0 0-20.236 0l-187.282 187.208v-176.772c0-38.44-28.03-71.686-67.248-79.928l-28.678-5.934-59.73 118.986-59.734-118.986-28.662 5.934c-39.234 8.242-67.216 41.488-67.216 79.928v219.14c0 29.48 23.83 53.404 53.294 53.404v26.762h204.664z" p-id="8312" fill="#ffffff"></path><path d="M10.234 555.838c0 81.834 66.57 148.386 148.326 148.386h1.758c-7.84-12.872-12.564-27.844-12.564-43.988v-20.31c-41.78-5.388-74.3-40.81-74.3-84.072V152.534c0-46.952 38.2-85.152 85.106-85.152h708.12c46.934 0 85.122 38.2 85.122 85.152v403.304c0 46.964-38.188 85.168-85.122 85.168H552.802l-31.67 31.638c-1.792 11.638-6.484 22.042-12.272 31.58h357.82c81.772 0 148.342-66.552 148.342-148.386V152.534c0-81.802-66.57-148.372-148.342-148.372H158.56c-81.756 0-148.326 66.57-148.326 148.372v403.304zM217.966 792.478h-110.62c-53.65 0-97.114 43.464-97.114 97.052v128.184h304.8v-128.184c0.002-53.586-43.462-97.052-97.066-97.052zM569.672 792.478h-110.634c-53.604 0-97.098 43.464-97.098 97.052v128.184h304.816v-128.184c0-53.586-43.478-97.052-97.084-97.052zM921.378 792.478h-110.634c-53.634 0-97.116 43.464-97.116 97.052v128.184h304.818v-128.184c0.002-53.586-43.466-97.052-97.068-97.052z" p-id="8313" fill="#ffffff"></path></svg>