<?xml version="1.0" standalone="no"?><!DOCTYPE svg PUBLIC "-//W3C//DTD SVG 1.1//EN" "http://www.w3.org/Graphics/SVG/1.1/DTD/svg11.dtd"><svg t="1510641609456" class="icon" style="" viewBox="0 0 1024 1024" version="1.1" xmlns="http://www.w3.org/2000/svg" p-id="3995" xmlns:xlink="http://www.w3.org/1999/xlink" width="48" height="48"><defs><style type="text/css"></style></defs><path d="M711.716 349.154 835.674 149.262 959.628 349.154 711.716 349.154ZM548.832 137.81 796.738 137.81 672.786 344.548 548.832 137.81ZM386.748 349.154 510.702 149.262 634.656 349.154 386.748 349.154ZM226.532 137.81 474.438 137.81 350.484 344.548 226.532 137.81ZM63.64 349.154 187.592 149.262 311.552 349.154 63.64 349.154ZM495.642 884.764 66.252 382.032 323.432 382.032 495.642 884.764ZM653.032 382.032 522.202 885.814 370.126 382.032 653.032 382.032ZM958.686 382.032 545.318 884.764 703.5 382.032 958.686 382.032Z" p-id="3996" fill="#ffffff"></path></svg>