<?xml version="1.0" standalone="no"?><!DOCTYPE svg PUBLIC "-//W3C//DTD SVG 1.1//EN" "http://www.w3.org/Graphics/SVG/1.1/DTD/svg11.dtd"><svg t="1509174757658" class="icon" style="" viewBox="0 0 1024 1024" version="1.1" xmlns="http://www.w3.org/2000/svg" p-id="7573" xmlns:xlink="http://www.w3.org/1999/xlink" width="48" height="48"><defs><style type="text/css"></style></defs><path d="M22.405940253745257 805.2568497625839h169.69263540690872V345.4714083528793H22.405940253745257v459.78544140970445m0 110.24192815200632c0 31.8069605078017 23.314003568201485 57.6188923324238 55.12096407600316 57.61889450184901h59.284177836704224c31.8069605078017 0 55.12096407600316-25.811931824622114 55.12096407600316-57.61889450184901v-52.78956306835547H22.405940253745257v52.78956306835547m114.40514191270739-745.0489203178571h-59.284177836704224C45.719941652521754 170.44985759673278 22.405940253745257 196.26178942135516 22.405940253745257 228.06874992915704v59.28418000612943l169.69263540690872-1.8318149224785436v-57.6188923324238c0-31.640433259028782-23.480530816974397-57.45236508365089-55.2874934942013-57.45236508365089m116.40348625338406 745.0489203178571c0 31.8069605078017 20.98260256055377 57.6188923324238 52.78956306835547 57.61889450184901h118.7348872610318c31.8069605078017 0 57.6188923324238-25.811931824622114 57.6188923324238-57.61889450184901V863.3753281801766H253.21456841983678v52.12344973441338m0-112.57332699022888l228.97681324361292 0.6661133339420817V228.56833601432606H253.21456841983678v574.3571149100352M424.5724893310261 52.38108583906836h-118.7348872610318c-31.8069605078017 0-52.78956306835547 25.811931824622114-52.78956306835547 57.6188923324238v59.95029334007151l228.97681541303817 1.8318149224785436v-61.782108262550075c0.16652941819812697-31.8069605078017-25.645402406423987-57.6188923324238-57.45236508365089-57.6188923324238m345.38029949699705 118.7348872610318H596.0969396604135c-31.8069605078017 0-57.6188923324238 25.811931824622114-57.61889450184901 57.6188923324238v688.7622568227425c0 31.8069605078017 25.811931824622114 57.6188923324238 57.61889450184901 57.6188923324238h173.85584916760976c31.8069605078017 0 57.6188923324238-25.811931824622114 57.6188923324238-57.6188923324238V228.56833601432606c-0.16652941819812697-31.8069605078017-25.811931824622114-57.45236508365089-57.6188923324238-57.45236291422568m115.57084350124386 574.1905833224117l114.57167133090553-2.331398838222499V575.6139231850286l-114.57167133090553 0.6661133339420817v169.02651990354147m0 174.52196467097704c0 31.8069605078017 19.816903141442523 55.12096407600316 51.62386364924423 55.12096407600316h8.99254302476938c31.8069605078017 0 53.95526465689194-25.811931824622114 53.95526465689194-57.6188923324238V803.4250370095302l-114.57167133090553 2.331398838222499v114.07208524573633m60.616406674013604-577.8542131673688h-8.99254302476938c-31.8069605078017 0-51.62386364924423 28.143332832269817-51.62386364924423 59.95029334007151v113.23944249359613h114.57167133090553v-115.737372919442c0-31.8069605078017-22.148301979665018-57.45236508365089-53.95526465689194-57.45236291422568m0 0z" fill="#ffffff" p-id="7574"></path></svg>