<?xml version="1.0" standalone="no"?><!DOCTYPE svg PUBLIC "-//W3C//DTD SVG 1.1//EN" "http://www.w3.org/Graphics/SVG/1.1/DTD/svg11.dtd"><svg t="1510302279552" class="icon" style="" viewBox="0 0 1024 1024" version="1.1" xmlns="http://www.w3.org/2000/svg" p-id="6606" xmlns:xlink="http://www.w3.org/1999/xlink" width="48" height="48"><defs><style type="text/css"></style></defs><path d="M896 768c41.941333 31.445333 42.666667 85.333333 42.666667 85.333333 0 27.690667 0 128-128 128-54.869333 0-170.666667-5.333333-170.666667-213.333333 0-26.624 21.674667-299.818667 0-341.333333-21.632-41.514667-101.333333-85.333333-170.666667-85.333333-74.666667 0-170.666667 32-170.666667 133.333333C298.666667 608 325.290667 752.341333 298.666667 853.333333c-18.773333 71.168-65.877333 128-128 128-85.333333 0-128-42.666667-128-128 0-128 143.488-118.869333 143.488-118.869333s-16.256-245.546667-16.256-243.242667c0-84.394667 15.146667-165.930667 62.848-225.92 47.658667-59.989333 128.554667-98.389333 259.968-98.389333 23.850667 0 46.592 0.981333 68.266667 2.944 18.688 57.856 47.616 84.864 124.373333 170.794667 44.885333 43.392 88.021333 81.408 142.122667 114.944-8.832 57.429333-15.872 252.672-19.498667 284.757333C806.954667 740.821333 853.333333 736 896 768zM978.56 443.264c-5.333333 22.656-35.413333 36.352-122.581333-17.28-17.962667-11.050667-120.064-102.229333-140.117333-122.624-51.285333-51.626667-157.994667-201.472-148.394667-186.88-20.224-34.261333-19.328-50.432-7.04-54.4 39.509333-12.714667 134.357333 77.013333 119.722667 64.256 30.848-24.149333 134.442667-84.736 119.68-78.592 11.904-4.949333 20.778667-5.76 26.538667-2.474667C968.362667 135.978667 983.765333 184.149333 981.333333 170.666667c1.578667 7.210667-69.376 161.365333-69.376 161.365333S983.893333 420.608 978.56 443.264z" p-id="6607" fill="#ffffff"></path></svg>