<?xml version="1.0" standalone="no"?><!DOCTYPE svg PUBLIC "-//W3C//DTD SVG 1.1//EN" "http://www.w3.org/Graphics/SVG/1.1/DTD/svg11.dtd"><svg t="1510302309657" class="icon" style="" viewBox="0 0 1024 1024" version="1.1" xmlns="http://www.w3.org/2000/svg" p-id="6750" xmlns:xlink="http://www.w3.org/1999/xlink" width="48" height="48"><defs><style type="text/css"></style></defs><path d="M319.604108 105.85284c22.207791-7.647167 34.233686 4.494361 26.727735 26.991748l-11.580756 34.69622c-7.513114 22.4892-2.203178 56.489572 11.789511 75.535347l21.518083 29.300326c13.998829 19.053961 6.256494 34.391275-17.197684 34.086329l-35.769668-0.464581c-23.454178-0.304945-53.706179 15.329127-67.216891 34.740222l-20.779256 29.851888c-13.511735 19.412119-30.235628 16.731056-37.180807-5.947456l-10.705829-34.992979c-6.939039-22.677489-30.939663-47.018873-53.334719-54.092989l-34.181497-10.796904c-22.39301-7.073092-25.061792-24.101931-5.933129-37.848003l29.28907-21.043269c19.128663-13.746072 34.535561-44.413536 34.240849-68.150146l-0.460488-36.672224c-0.301875-23.737634 14.817474-31.515784 33.595142-17.284665l28.757974 21.808702c18.776645 14.232143 52.306296 19.620873 74.514087 11.965519L319.604108 105.85284 319.604108 105.85284zM827.808666 202.939015c49.377594-17.001209 76.116585 9.993608 59.429531 60.016909l-25.7515 77.145008c-16.703427 50.005904-4.895497 125.601626 26.213012 167.952176l47.846728 65.146743c31.124881 42.366923 13.909801 76.467579-38.240953 75.789127l-79.531358-1.032516c-52.150754-0.678452-119.41267 34.084283-149.45694 77.244268l-46.200228 66.373687c-30.043247 43.162032-67.229171 37.20025-82.671884-13.221116l-23.802102-77.807087c-15.430434-50.423413-68.792782-104.547101-118.588909-120.274294l-76.001975-24.006763c-49.79101-15.72617-55.725162-53.588499-13.192464-84.154655l65.122183-46.790676c42.532699-30.562063 76.785827-98.750071 76.132958-151.529135l-1.02126-81.540108c-0.674359-52.779064 32.942273-70.072939 74.695213-38.428218l63.942311 48.489364c41.748846 31.644721 116.301819 43.627636 165.679413 26.606984L827.808666 202.939015 827.808666 202.939015zM349.45395 658.935514c-8.691963 0-18.168802 9.943466-18.168802 9.943466L153.999396 848.992127c-10.871605 11.047614-10.871605 29.124318 0 40.172955l45.552475 46.276976c10.877745 11.051707 28.672016 11.051707 39.545668 0l175.609577-178.411389c0 0 10.197246-10.279111 10.197246-20.154016 0-8.795317-12.860912-22.867824-12.860912-22.867824l-43.482327-44.174082C368.5601 669.834748 359.136473 658.935514 349.45395 658.935514L349.45395 658.935514zM479.663524 690.320315c0-3.505847-3.914146-7.325849-3.914146-7.325849l-70.906933-71.485101c-4.349051-4.384867-11.466146-4.384867-15.815197 0l-18.218944 18.3663c-4.350075 4.386914-4.350075 11.562337 0 15.94618l70.236668 70.809719c0 0 4.048199 4.111644 7.93574 4.111644 3.461845 0 9.003048-5.186116 9.003048-5.186116l17.389042-17.533328C475.372801 698.023764 479.663524 694.224228 479.663524 690.320315L479.663524 690.320315zM356.284519 611.910501" p-id="6751" fill="#ffffff"></path></svg>