<?xml version="1.0" standalone="no"?><!DOCTYPE svg PUBLIC "-//W3C//DTD SVG 1.1//EN" "http://www.w3.org/Graphics/SVG/1.1/DTD/svg11.dtd"><svg t="1502983137250" class="icon" style="" viewBox="0 0 1026 1024" version="1.1" xmlns="http://www.w3.org/2000/svg" p-id="2602" xmlns:xlink="http://www.w3.org/1999/xlink" width="32.0625" height="32"><defs><style type="text/css"></style></defs><path d="M843.487 73.728l108.872 0 0 109.445c0 20.193 16.302 36.536 36.332 36.536 20.07 0 36.291-16.384 36.291-36.536L1024.982 37.233c0-0.106-0.007-0.21-0.008-0.316-0.137-16.27-10.772-29.963-25.472-34.565-3.417-1.075-7.049-1.655-10.811-1.655l0 0 0 0L843.487 0.697c-20.029 0-36.25 16.384-36.25 36.536S823.499 73.728 843.487 73.728z" p-id="2603" fill="#ffffff"></path><path d="M1013.594 465.265 537.926 15.237C530.27 7.906 520.25 4.654 510.477 5.38c-8.184 0.497-16.232 3.769-22.646 9.857L12.409 465.51c-14.582 13.763-15.278 36.905-1.557 51.528 13.763 14.623 36.7 15.36 51.241 1.597l90.016-85.231 0 46.224c-0.258 1.756-0.395 3.551-0.395 5.379l0 499.426c-0.049 0.773-0.082 1.549-0.082 2.334 0 20.275 16.261 36.536 36.291 36.536l217.743 0c20.029 0 36.25-16.343 36.25-36.536L441.916 731.382l147.579 0 0 255.386c0 20.275 16.261 36.536 36.291 36.536l217.62 0c0.014 0 0.027-0.001 0.041-0.001s0.027 0.001 0.041 0.001c20.111 0 36.332-16.343 36.332-36.536L879.82 559.588l0-74.581 0-46.042 84.05 79.547c14.623 13.763 37.519 13.025 51.323-1.597C1028.954 502.17 1028.135 479.109 1013.594 465.265z" p-id="2604" fill="#ffffff"></path></svg>