<?xml version="1.0" standalone="no"?><!DOCTYPE svg PUBLIC "-//W3C//DTD SVG 1.1//EN" "http://www.w3.org/Graphics/SVG/1.1/DTD/svg11.dtd"><svg t="1510302239642" class="icon" style="" viewBox="0 0 1024 1024" version="1.1" xmlns="http://www.w3.org/2000/svg" p-id="5527" xmlns:xlink="http://www.w3.org/1999/xlink" width="48" height="48"><defs><style type="text/css"></style></defs><path d="M62 461.99999990234375h699.999999609375v500.0000000976562H62V461.99999990234375z m699.999999609375 150.00000029296874h50.000000097656255v199.99999951171876h-50.000000097656255v-199.99999951171876z m50.000000097656255 0.29999970703125L962 512v399.99999990234375l-150.00000029296874-100.19999970703124v-199.50000029296876zM212.00000029296876 461.99999990234375a150.00000029296874 150.00000029296874 0 1 1 0-299.99999970703124 150.00000029296874 150.00000029296874 0 0 1 0 299.99999970703124z m349.9999998046875 0a200.00000039062502 200.00000039062502 0 1 1 0-399.99999990234375 200.00000039062502 200.00000039062502 0 0 1 0 399.99999990234375zM212.00000029296876 361.9999997070313a50.000000097656255 50.000000097656255 0 1 0 0-99.99999931640625 50.000000097656255 50.000000097656255 0 0 0 0 99.99999931640625z m349.9999998046875-24.999999609375003a74.99999970703125 74.99999970703125 0 1 0 0-150.00000029296874 74.99999970703125 74.99999970703125 0 0 0 0 150.00000029296874z" p-id="5528" fill="#ffffff"></path></svg>