<?xml version="1.0" standalone="no"?><!DOCTYPE svg PUBLIC "-//W3C//DTD SVG 1.1//EN" "http://www.w3.org/Graphics/SVG/1.1/DTD/svg11.dtd"><svg t="1501395284123" class="icon" style="" viewBox="0 0 1024 1024" version="1.1" xmlns="http://www.w3.org/2000/svg" p-id="20490" xmlns:xlink="http://www.w3.org/1999/xlink" width="48" height="48"><defs><style type="text/css"></style></defs><path d="M512 11.264c-276.48 0-500.736 224.256-500.736 500.736s224.256 500.736 500.736 500.736 500.736-224.256 500.736-500.736-224.256-500.736-500.736-500.736z m25.6 799.744c-6.656 6.656-16.384 10.752-25.6 10.752-9.728 0-18.944-4.096-25.6-10.752-6.656-6.656-10.752-16.384-10.752-26.112 0-9.728 4.096-19.456 10.752-26.112 6.656-6.656 16.384-10.752 25.6-10.752 9.728 0 18.944 4.096 25.6 10.752 6.656 6.656 10.752 16.384 10.752 26.112 0 9.728-4.096 19.456-10.752 26.112z m-25.6-85.504c-19.968 0-36.352-16.384-36.352-36.864 0-19.968 16.384-36.864 36.352-36.864 19.968 0 36.352 16.384 36.352 36.864s-16.384 36.864-36.352 36.864z m252.416-232.448c-7.68 7.68-17.408 11.264-27.136 11.264s-19.456-3.584-27.136-11.264l-159.744-159.744V588.8c0 20.992-17.408 38.4-38.4 38.4s-38.4-17.408-38.4-38.4v-255.488l-159.744 159.744c-14.848 14.848-39.424 14.848-54.272 0-14.848-14.848-14.848-39.424 0-54.272l225.28-225.28c14.848-14.848 39.424-14.848 54.272 0l225.28 225.28c14.848 14.848 14.848 38.912 0 54.272z" p-id="20491" fill="#2c2c2c"></path></svg>